<svg xmlns="http://www.w3.org/2000/svg" viewBox="0 0 512 512">
  <defs>
    <linearGradient id="bg" x1="0%" y1="0%" x2="100%" y2="100%">
      <stop offset="0%" stop-color="#fff9e6" />
      <stop offset="100%" stop-color="#ffe4b5" />
    </linearGradient>
    <linearGradient id="jello" x1="0%" y1="0%" x2="100%" y2="100%">
      <stop offset="0%" stop-color="#7ee787" />
      <stop offset="100%" stop-color="#31c48d" />
    </linearGradient>
  </defs>

  <rect width="512" height="512" rx="112" fill="url(#bg)" />
  <rect x="24" y="24" width="464" height="464" rx="96" fill="none" stroke="#8b4513" stroke-width="18" />

  <g transform="translate(256 260)">
    <path
      d="M0-156c74 0 134 54 134 122 0 31-11 58-31 79-10 11-16 26-16 41v26c0 53-39 92-87 92S-87 165-87 112V86c0-15-6-30-16-41-20-21-31-48-31-79 0-68 60-122 134-122z"
      fill="url(#jello)"
      stroke="#8b4513"
      stroke-width="18"
      stroke-linejoin="round"
    />
    <circle cx="-40" cy="-18" r="12" fill="#2f2419" />
    <circle cx="40" cy="-18" r="12" fill="#2f2419" />
    <path d="M-42 42c18 22 66 22 84 0" fill="none" stroke="#2f2419" stroke-width="16" stroke-linecap="round" />
  </g>

  <g fill="#8b4513" opacity="0.82">
    <path d="M124 114h42v-42h16v42h42v16h-42v42h-16v-42h-42z" />
    <path d="M326 120h100v16H326z" />
    <path d="M332 368h88v16h-88z" />
    <path d="M115 359h109v16H115z" />
    <path d="M161 313h16v108h-16z" />
  </g>
</svg>
