<svg xmlns="http://www.w3.org/2000/svg" viewBox="0 0 512 512">
  <defs>
    <linearGradient id="bg" x1="0%" y1="0%" x2="100%" y2="100%">
      <stop offset="0%" stop-color="#fff7ed" />
      <stop offset="100%" stop-color="#fde68a" />
    </linearGradient>
    <linearGradient id="jello" x1="0%" y1="0%" x2="100%" y2="100%">
      <stop offset="0%" stop-color="#34d399" />
      <stop offset="100%" stop-color="#10b981" />
    </linearGradient>
  </defs>

  <rect width="512" height="512" fill="url(#bg)" />

  <g transform="translate(256 260)">
    <path
      d="M0-146c70 0 126 51 126 116 0 29-10 55-29 75-11 12-18 28-18 45v18c0 49-35 86-79 86s-79-37-79-86V90c0-17-7-33-18-45-19-20-29-46-29-75 0-65 56-116 126-116z"
      fill="url(#jello)"
      stroke="#8b4513"
      stroke-width="18"
      stroke-linejoin="round"
    />
    <circle cx="-38" cy="-18" r="12" fill="#2f2419" />
    <circle cx="38" cy="-18" r="12" fill="#2f2419" />
    <path d="M-38 38c16 18 60 18 76 0" fill="none" stroke="#2f2419" stroke-width="16" stroke-linecap="round" />
  </g>

  <g fill="#8b4513" opacity="0.85">
    <path d="M130 108h36V72h16v36h36v16h-36v36h-16v-36h-36z" />
    <path d="M318 116h64v16h-64z" />
    <path d="M330 370h52v16h-52z" />
    <path d="M130 372h78v16h-78z" />
  </g>
</svg>
